<svg
          xmlns="http://www.w3.org/2000/svg"
          height="40"
          fill="none"
          viewBox="0 0 25 40"
        >
          <path
            fill="#8047F8"
            d="M24.218 4.102c-.325-.496-.799-.51-1.338-.527l-.186-.006c-.048-.002-.1-.001-.156 0-.219.003-.475.007-.604-.177-.15-.213-.136-.625-.124-.966.004-.107.007-.208.005-.292-.02-.79-.065-1.63-.37-1.911-.23-.21-.918-.182-1.553-.155a14.39 14.39 0 01-.583.018H5.796c-.272 0-.557-.023-.838-.044-.546-.043-1.073-.084-1.447.044-.543.185-.58 1.16-.615 2.08l-.002.049c-.029.758-.217 1.343-.84 1.284C1.33 3.432.61 3.41.283 4.066c-.387.776-.307 1.588-.164 3.042l.064.664h24.244l.044-.51c.113-1.308.212-2.448-.252-3.16z"
          ></path>
          <path
            fill="#8047F8"
            fillRule="evenodd"
            d="M2.07 9.215c.379 5.124.753 10.255 1.128 15.386v.003l.61 8.357h.774c.053.436.113.974.177 1.541.129 1.152.271 2.424.391 3.206h.086c.788-.288 6.235-2.616 6.238-11.886a.564.564 0 01.002-.08H10.13a.3.3 0 01-.284-.218 6.745 6.745 0 01-.317-.998 4.3 4.3 0 00-1.796 1.951 3.848 3.848 0 01-.132-2.65 3.895 3.895 0 011.619-2.118 10.985 10.985 0 012.846-7.329l.029-.025a.297.297 0 01.19-.072.298.298 0 01.218.097 10.744 10.744 0 012.82 7.373 3.792 3.792 0 011.646 2.108c.272.876.214 1.82-.165 2.657a4.264 4.264 0 00-1.796-1.95c-.049.329-.138.651-.266.959-.044.131-.133.216-.222.216h-1.435a.536.536 0 01.005.047v.011a.56.56 0 010 .041c.02 9.536 5.812 11.7 6.3 11.866h.167c.043-.75.182-1.787.317-2.798.093-.696.185-1.38.242-1.95h.782c.251-3.507.509-7.005.766-10.504v-.002c.33-4.475.66-8.95.974-13.445H2.12c-.06.011-.055.108-.05.206zm10.216 5.068h-.002.003-.001z"
            clipRule="evenodd"
          ></path>
        </svg>